<?xml version="1.0" standalone="no"?>
<!DOCTYPE svg PUBLIC "-//W3C//DTD SVG 20010904//EN"
 "http://www.w3.org/TR/2001/REC-SVG-20010904/DTD/svg10.dtd">
<svg version="1.0" xmlns="http://www.w3.org/2000/svg"
 width="600.000000pt" height="900.000000pt" viewBox="0 0 600.000000 900.000000"
 preserveAspectRatio="xMidYMid meet">

<g transform="translate(0.000000,900.000000) scale(0.100000,-0.100000)"
fill="#000000" stroke="none">
<path d="M0 4500 l0 -4500 3000 0 3000 0 0 4500 0 4500 -3000 0 -3000 0 0
-4500z m2585 739 c22 -6 61 -20 88 -31 l47 -20 0 -59 c0 -33 -4 -59 -9 -59 -5
0 -32 16 -61 35 -63 42 -106 55 -188 55 -101 0 -169 -39 -215 -125 -19 -35
-22 -56 -22 -160 0 -130 9 -159 64 -218 85 -92 240 -97 368 -12 29 19 55 35
58 35 3 0 5 -26 5 -59 l0 -59 -47 -20 c-110 -46 -184 -57 -278 -42 -166 27
-265 132 -284 305 -25 219 61 376 234 431 50 16 187 17 240 3z m-1261 -28 c52
-26 85 -78 86 -135 0 -41 -36 -111 -67 -131 l-25 -17 38 -18 c168 -76 147
-313 -33 -380 -46 -17 -78 -20 -233 -20 l-180 0 0 366 0 366 183 -4 c168 -3
186 -5 231 -27z m376 -291 l0 -320 185 0 185 0 0 -45 0 -45 -235 0 -235 0 0
365 0 365 50 0 50 0 0 -320z m1252 136 l3 -184 170 184 170 184 64 0 63 0 -80
-87 c-44 -49 -94 -101 -112 -118 -18 -16 -54 -55 -81 -86 l-49 -56 165 -187
c91 -103 165 -189 165 -191 0 -3 -29 -5 -64 -5 l-63 0 -118 133 c-65 72 -129
143 -141 157 l-24 24 -35 -34 -35 -34 0 -123 0 -123 -50 0 -50 0 0 365 0 365
50 0 50 0 2 -184z m893 -101 l150 -284 3 284 2 285 50 0 50 0 0 -365 0 -366
-66 3 -65 3 -165 310 c-137 259 -164 304 -164 275 -1 -19 -2 -159 -3 -310 l-2
-275 -47 -3 -48 -3 0 365 0 366 78 0 77 0 150 -285z m1133 183 l3 -77 92 -3
92 -3 3 -37 3 -38 -95 0 -96 0 0 -174 c0 -155 2 -176 19 -197 20 -25 76 -32
139 -16 l32 9 0 -41 c0 -35 -4 -43 -26 -51 -46 -18 -155 -12 -191 10 -63 38
-67 54 -73 265 l-5 190 -31 5 c-27 5 -30 8 -30 40 1 32 4 35 34 38 l32 3 0 80
0 80 48 -3 47 -3 3 -77z m-329 -101 c55 -37 88 -107 93 -197 l3 -65 -203 -3
-203 -2 7 -38 c26 -143 168 -193 326 -114 l59 29 -3 -56 -3 -55 -60 -19 c-68
-22 -179 -25 -241 -8 -63 17 -120 64 -151 123 -24 46 -27 65 -28 143 0 111 19
165 79 224 58 57 102 72 202 69 69 -3 86 -7 123 -31z"/>
<path d="M1020 5050 l0 -102 110 4 c102 3 111 5 136 29 38 39 43 97 11 135
-25 29 -27 29 -141 32 l-116 4 0 -102z"/>
<path d="M1020 4731 l0 -131 115 0 c128 0 169 11 203 55 26 33 30 101 8 144
-23 44 -59 54 -198 59 l-128 4 0 -131z"/>
<path d="M4425 4972 c-38 -23 -51 -39 -70 -85 l-15 -37 155 0 155 0 -6 28
c-12 48 -34 81 -64 97 -40 21 -118 19 -155 -3z"/>
</g>
</svg>
